<?xml version="1.0" standalone="no"?>
<!DOCTYPE svg PUBLIC "-//W3C//DTD SVG 20010904//EN"
 "http://www.w3.org/TR/2001/REC-SVG-20010904/DTD/svg10.dtd">
<svg version="1.0" xmlns="http://www.w3.org/2000/svg"
 width="1024.000000pt" height="640.000000pt" viewBox="0 0 1024.000000 640.000000"
 preserveAspectRatio="xMidYMid meet">

<g transform="translate(0.000000,640.000000) scale(0.100000,-0.100000)"
fill="#000000" stroke="none">
<path d="M7145 5896 c-83 -22 -118 -42 -242 -134 -65 -48 -250 -184 -410 -301
-312 -226 -320 -234 -358 -346 -9 -27 -20 -96 -24 -152 -3 -56 -8 -103 -11
-106 -9 -7 -93 -63 -135 -89 l-40 -25 33 68 c83 174 83 325 2 478 -44 82 -224
265 -365 370 -215 161 -382 220 -650 228 -417 14 -672 -83 -765 -290 -68 -151
-72 -158 -113 -185 -38 -25 -47 -27 -156 -26 -152 0 -205 20 -302 112 -65 61
-74 66 -122 69 -163 13 -291 -202 -213 -355 22 -42 89 -126 152 -191 l24 -23
-103 -71 c-101 -70 -823 -550 -1240 -823 -247 -163 -332 -239 -505 -447 -195
-234 -335 -464 -335 -549 0 -56 44 -98 103 -98 l40 0 1 -52 c0 -29 6 -93 12
-143 l12 -90 32 3 c74 5 339 134 525 254 320 207 730 477 978 643 978 658 996
670 1056 681 40 7 61 -4 209 -110 156 -112 216 -136 336 -136 103 0 134 12
213 81 78 69 114 170 86 243 -14 38 -79 105 -122 127 -22 11 -44 32 -50 47 -6
15 -54 68 -105 117 -108 103 -110 111 -30 152 46 23 54 24 91 13 58 -17 146
-67 309 -177 271 -183 333 -194 557 -106 86 33 120 40 120 24 0 -12 -38 -35
-395 -243 -394 -230 -546 -316 -865 -488 -146 -79 -357 -195 -470 -258 -113
-63 -238 -133 -278 -155 l-73 -39 -59 41 c-118 83 -187 99 -266 60 -49 -23
-98 -89 -108 -145 -4 -19 -2 -60 4 -91 7 -30 8 -59 3 -63 -12 -12 -190 -82
-438 -172 -728 -263 -830 -303 -878 -347 -53 -47 -67 -85 -67 -173 1 -182 80
-394 231 -618 31 -47 75 -121 97 -166 83 -167 246 -350 360 -406 60 -30 75
-33 157 -33 49 0 96 2 104 5 9 3 28 -19 55 -66 23 -39 60 -96 83 -125 23 -30
56 -90 73 -134 45 -113 92 -195 152 -260 67 -74 98 -89 162 -81 32 3 72 0 106
-9 69 -19 163 -19 223 -1 l45 14 22 -57 c24 -65 104 -175 154 -211 20 -15 45
-49 62 -84 16 -33 61 -95 106 -144 43 -47 78 -89 78 -94 0 -4 17 -8 38 -8 21
0 43 -5 49 -11 8 -8 13 -8 17 0 4 6 30 11 57 11 98 0 144 37 266 213 32 47
117 115 218 176 75 45 205 100 369 155 76 26 147 51 157 57 16 8 25 0 64 -61
120 -188 286 -281 474 -267 112 9 183 49 384 217 327 273 640 453 982 563 423
136 725 205 1115 252 233 29 279 39 298 66 17 24 52 25 52 1 0 -10 6 -26 14
-37 20 -29 25 -103 7 -110 -7 -3 -16 -3 -19 0 -3 3 1 5 9 6 8 0 1 5 -16 10
-37 11 -75 1 -75 -19 0 -8 -8 -25 -17 -36 -18 -21 -18 -21 3 -3 34 28 51 20
21 -11 -17 -18 -27 -39 -27 -59 0 -34 21 -58 36 -43 6 6 8 -5 6 -29 -5 -49 11
-79 51 -96 38 -16 63 -10 46 11 -9 11 -6 25 12 64 26 54 30 58 49 35 16 -19
50 -2 50 25 0 26 45 77 74 82 35 7 55 -8 22 -16 -53 -13 -37 -96 18 -96 17 0
18 2 6 10 -11 7 -8 9 14 7 25 -2 31 3 42 33 l12 35 1 -31 c1 -38 22 -58 50
-49 32 10 38 51 12 86 -26 35 -8 40 32 9 l26 -21 11 41 c6 22 8 45 5 50 -3 6
-1 10 4 10 6 0 14 -19 18 -42 l7 -43 8 35 c5 19 17 41 26 48 15 11 15 14 2 22
-8 5 -32 10 -52 10 -21 0 -38 5 -38 10 0 6 9 10 19 10 16 0 21 8 23 37 l4 38
12 -30 c7 -16 15 -36 17 -43 3 -7 9 -11 14 -7 6 3 4 17 -5 33 -7 15 -14 32
-14 38 0 6 -14 32 -32 58 -33 51 -84 90 -145 112 -27 9 -32 13 -16 14 31 0 88
79 110 150 26 84 23 279 -5 395 -44 176 -166 452 -264 597 -45 67 -82 97 -167
136 -52 24 -71 40 -119 102 -81 106 -126 137 -207 145 -116 13 -180 -3 -362
-91 -67 -32 -101 -55 -128 -88 -35 -40 -41 -44 -98 -49 -34 -3 -87 -14 -117
-24 -30 -9 -260 -119 -510 -243 -629 -311 -919 -436 -1220 -525 -140 -42 -376
-95 -419 -95 -27 0 -17 8 66 51 177 93 566 320 973 568 102 63 325 193 495
291 171 97 411 238 535 312 547 328 892 518 941 518 10 0 28 -13 41 -29 13
-16 68 -66 123 -111 55 -46 118 -100 141 -120 22 -20 62 -49 88 -65 57 -33 75
-33 329 -5 295 33 282 28 407 145 176 163 190 185 190 288 0 94 -22 156 -113
316 -59 104 -95 156 -132 188 -27 25 -59 64 -71 86 -24 48 -88 87 -144 87 -33
0 -39 5 -75 61 -48 72 -87 99 -146 99 l-45 0 4 38 c7 72 -13 118 -71 161 -59
44 -85 71 -115 122 -12 20 -41 54 -65 76 -23 21 -54 58 -69 80 -37 56 -74 67
-204 60 -100 -5 -103 -4 -126 20 -76 82 -198 68 -330 -37 -45 -36 -78 -50 -78
-34 0 3 7 27 16 54 25 77 16 210 -18 281 -30 60 -139 197 -151 189 -4 -3 -17
11 -28 30 -49 82 -128 133 -286 186 -95 32 -241 41 -318 20z m301 -89 c47 -24
134 -114 134 -139 0 -5 -10 -13 -22 -18 -20 -7 -20 -9 -4 -9 17 -1 17 -3 -5
-22 -24 -21 -24 -21 -2 -15 18 6 22 4 17 -8 -3 -9 -10 -16 -14 -16 -5 0 -22
-11 -38 -25 -21 -18 -59 -32 -123 -45 -51 -11 -97 -20 -103 -20 -6 0 -4 -5 4
-10 8 -5 12 -10 8 -10 -3 0 -64 -11 -134 -25 -71 -14 -137 -22 -149 -19 -16 4
-17 3 -5 -5 12 -8 8 -11 -17 -11 -18 0 -33 5 -33 10 0 6 -8 10 -17 10 -16 0
-16 -2 -3 -11 11 -8 8 -9 -15 -4 -89 20 -65 72 86 180 122 88 217 122 392 140
69 8 67 16 -7 26 -131 17 -301 -45 -448 -164 -127 -103 -170 -177 -119 -209
18 -11 18 -13 -12 -40 -18 -15 -40 -28 -49 -28 -9 0 -20 -5 -24 -12 -5 -7 -2
-9 9 -5 11 4 14 2 10 -9 -3 -7 -11 -14 -19 -14 -8 0 -14 -4 -14 -10 0 -5 -5
-10 -11 -10 -6 0 -9 7 -5 15 3 8 0 15 -7 15 -16 -1 -76 -50 -60 -50 6 0 18 7
27 15 25 25 31 17 6 -10 -12 -13 -26 -22 -30 -20 -4 3 -18 -4 -30 -15 -23 -20
-34 -24 -59 -21 -7 2 -10 -2 -6 -8 3 -6 1 -11 -4 -11 -6 0 -11 8 -11 18 0 13
-2 14 -9 3 -7 -11 -16 -11 -57 2 -27 9 -75 21 -106 28 -32 7 -58 14 -58 17 0
6 -3 4 308 229 369 268 477 341 531 358 31 10 78 14 146 12 85 -3 108 -7 151
-30z m-2251 -7 c337 -84 573 -338 525 -563 -18 -84 -47 -132 -125 -205 -121
-113 -297 -192 -431 -192 -84 0 -143 32 -334 180 -197 152 -252 182 -334 183
-46 0 -73 -6 -112 -26 -56 -29 -120 -93 -130 -132 -7 -30 -20 -32 -29 -5 -15
48 74 153 162 192 57 25 139 21 199 -10 22 -11 114 -76 205 -144 200 -151 264
-182 369 -181 181 1 402 107 480 230 34 53 54 137 45 187 -9 45 -31 37 -34
-12 -3 -64 -17 -112 -32 -112 -6 0 -7 -5 -4 -10 4 -6 3 -10 -2 -8 -4 1 -26
-15 -48 -37 -22 -21 -52 -45 -66 -54 -14 -9 -27 -19 -28 -23 0 -5 -4 -8 -8 -9
-19 -2 -43 -21 -38 -29 3 -5 -32 -21 -77 -35 -94 -31 -275 -42 -271 -17 2 6
-4 12 -13 12 -9 0 -12 -5 -8 -11 8 -14 6 -13 -66 25 -30 16 -77 45 -105 65
-27 19 -45 29 -41 21 5 -8 -2 -3 -15 11 -13 14 -53 50 -89 80 -36 30 -68 58
-71 63 -4 5 -12 5 -18 2 -6 -4 -11 -3 -11 1 0 5 -8 9 -17 10 -10 1 -43 7 -73
13 -69 15 -126 7 -190 -25 -69 -35 -115 -78 -141 -132 l-22 -46 -73 76 c-79
84 -136 127 -166 127 -13 0 -2 -15 40 -49 32 -27 101 -95 153 -152 227 -248
396 -424 423 -438 16 -9 39 -25 53 -36 l23 -20 -22 -45 c-35 -70 -124 -156
-177 -170 -63 -17 -103 -4 -116 38 -5 17 -12 32 -15 32 -3 0 -37 23 -75 51
-39 29 -108 70 -154 92 -75 37 -91 41 -160 41 -62 -1 -85 -5 -127 -27 -28 -14
-251 -158 -495 -320 -553 -366 -1182 -774 -1362 -884 -197 -120 -504 -267
-572 -275 -25 -2 -31 1 -33 20 -11 75 253 454 477 685 72 75 127 119 235 189
295 193 1394 928 1452 971 34 24 71 59 83 75 l22 31 -113 62 c-132 74 -174
110 -184 164 -17 90 106 242 179 219 12 -3 46 -29 74 -56 91 -85 230 -138 364
-138 155 0 225 48 289 199 68 163 130 218 295 266 129 37 197 44 405 41 152
-3 201 -7 275 -26z m2449 -189 c3 -4 -6 -6 -19 -3 -14 2 -25 6 -25 8 0 8 39 4
44 -5z m-334 -218 c-178 -29 -255 -61 -364 -152 -50 -42 -117 -94 -148 -114
-54 -35 -59 -37 -84 -24 l-26 14 48 28 c27 16 76 54 109 86 33 32 74 65 90 73
24 13 26 16 10 16 -12 0 -52 -28 -90 -63 -39 -35 -93 -80 -122 -99 -48 -33
-54 -35 -87 -24 -34 10 -49 26 -25 26 14 0 114 70 177 124 50 43 57 46 110 46
63 0 146 12 213 31 38 10 41 13 24 20 -19 9 -19 9 2 5 12 -2 37 0 55 4 18 4
56 8 83 8 28 -1 39 -3 25 -5z m-197 -20 c-7 -2 -19 -2 -25 0 -7 3 -2 5 12 5
14 0 19 -2 13 -5z m267 -18 l25 -15 -30 4 c-16 2 -23 1 -15 -1 8 -3 -35 -20
-95 -37 -145 -42 -200 -69 -321 -154 -56 -40 -105 -72 -110 -72 -5 0 -2 5 6
11 13 9 13 10 0 6 -8 -2 -15 -10 -15 -18 0 -8 -8 -13 -19 -11 -11 2 -15 -1
-11 -8 4 -7 -1 -7 -14 2 -12 7 -21 15 -21 18 0 3 25 20 56 39 31 18 90 64 132
101 43 37 87 72 100 79 46 25 174 54 302 70 3 0 16 -6 30 -14z m-310 -160 c-7
-8 -18 -15 -24 -15 -6 0 -2 7 8 15 25 19 32 19 16 0z m1189 1 c13 -7 91 -76
175 -153 83 -78 225 -209 316 -293 171 -159 551 -544 608 -617 19 -24 36 -61
41 -88 9 -50 4 -122 -10 -131 -4 -2 -50 35 -101 84 -51 48 -119 112 -151 142
l-59 55 29 25 c15 14 39 32 53 41 l24 16 -49 54 c-84 93 -257 259 -270 259 -6
0 -22 -12 -36 -26 -13 -14 -37 -35 -52 -46 l-28 -20 -24 22 c-14 13 -22 26
-20 31 3 4 0 11 -6 15 -8 5 -9 3 -4 -7 8 -12 6 -12 -8 0 -9 7 -14 18 -10 25 3
6 2 8 -2 3 -11 -10 -56 33 -48 46 3 6 1 7 -4 4 -13 -8 -95 62 -87 74 3 5 1 8
-4 7 -5 -2 -80 62 -166 141 -134 124 -221 196 -302 248 -18 12 -18 13 1 29 27
22 136 74 155 74 8 -1 26 -7 39 -14z m-2043 -107 c-49 -101 -61 -99 -22 4 29
78 48 109 59 98 4 -4 -12 -50 -37 -102z m151 87 c60 -21 158 -66 111 -52 -12
3 -15 1 -11 -9 3 -8 10 -12 17 -8 6 4 5 -1 -3 -10 -7 -9 -10 -17 -6 -17 4 0 2
-6 -4 -14 -7 -8 -22 -12 -34 -9 -16 3 -18 2 -9 -5 8 -5 13 -13 13 -17 -2 -14
31 -15 67 -4 18 6 36 9 39 6 7 -7 -72 -47 -93 -47 -23 0 -124 56 -158 87 -25
23 -27 31 -22 66 6 37 13 57 20 57 1 0 34 -11 73 -24z m2223 -46 c21 -13 12
-18 -68 -31 -57 -9 -75 -9 -87 1 -33 28 -13 37 80 39 33 0 67 -3 75 -9z
m-1957 -65 c-3 -9 -8 -14 -10 -11 -3 3 -2 9 2 15 9 16 15 13 8 -4z m1601 -173
c313 -307 781 -741 810 -751 16 -5 46 -33 46 -42 0 -12 -173 -162 -270 -235
-86 -65 -113 -75 -127 -50 -4 8 -100 108 -213 223 -113 114 -245 258 -295 318
-140 172 -230 268 -337 361 l-98 85 22 40 c32 58 220 239 248 239 16 0 78 -54
214 -188z m-1560 157 c-8 -14 -21 -11 -21 5 0 8 6 12 14 9 7 -3 10 -9 7 -14z
m176 2 c0 -5 -7 -12 -16 -15 -14 -5 -15 -4 -4 9 14 17 20 19 20 6z m-125 -20
c3 -5 2 -12 -3 -15 -5 -3 -9 1 -9 9 0 17 3 19 12 6z m952 -209 c-28 -30 -57
-84 -57 -105 0 -8 29 -54 65 -102 36 -48 65 -91 65 -97 0 -22 -34 -65 -79
-100 -84 -65 -673 -403 -1166 -668 -115 -62 -352 -191 -525 -285 -817 -447
-1821 -985 -1836 -985 -5 0 -19 31 -31 68 l-22 67 27 23 c36 30 361 246 587
390 513 327 1033 666 1504 981 184 122 343 226 355 230 12 5 41 1 73 -10 94
-34 104 -30 313 117 85 61 225 157 310 214 154 103 406 280 425 298 23 22 16
-11 -8 -36z m-1503 -26 c-1 -9 2 -16 6 -16 4 0 11 -7 14 -16 6 -15 4 -15 -16
-2 -23 15 -23 14 -22 -18 2 -31 0 -33 -27 -30 -29 3 -29 3 -12 -17 10 -11 12
-17 6 -13 -7 4 -21 2 -32 -4 -13 -6 -22 -6 -26 0 -3 5 -13 6 -22 3 -13 -5 -12
-9 7 -23 17 -13 20 -19 10 -25 -8 -5 -11 -4 -7 2 4 6 0 13 -8 17 -18 6 -30
-10 -13 -17 10 -4 10 -8 -2 -16 -8 -5 -18 -7 -22 -5 -4 3 -8 -2 -8 -10 0 -9
-4 -16 -10 -16 -5 0 -7 7 -4 15 4 8 1 15 -6 15 -9 0 -9 4 -2 13 8 10 6 13 -11
14 -12 1 -17 -1 -12 -5 6 -4 11 -15 13 -24 2 -12 -3 -16 -17 -13 -13 2 -18 -1
-15 -9 9 -25 -47 -50 -103 -48 -44 3 -59 -1 -88 -24 -44 -33 -35 -52 11 -24
39 22 48 25 39 10 -3 -6 -23 -19 -43 -30 -20 -10 -31 -19 -24 -20 7 0 20 4 30
9 19 11 51 23 69 27 22 4 24 -15 3 -26 -11 -6 -18 -15 -15 -20 3 -6 0 -7 -8
-4 -8 3 -18 0 -23 -7 -4 -8 -3 -10 4 -5 7 4 12 5 12 2 0 -3 -10 -10 -21 -17
-17 -9 -20 -8 -13 2 4 7 -8 4 -27 -8 -19 -11 -63 -33 -99 -48 -36 -15 -76 -32
-90 -38 -14 -6 -28 -10 -32 -9 -5 1 -8 -2 -8 -6 0 -4 -20 -16 -45 -26 -24 -10
-42 -23 -39 -27 3 -5 -25 -9 -62 -9 -69 0 -119 -17 -173 -59 l-25 -19 27 5
c26 5 27 4 27 -40 0 -25 3 -54 6 -64 6 -16 5 -16 -10 2 -15 17 -17 17 -12 3 5
-18 4 -19 -71 -22 -10 -1 -21 -5 -25 -11 -4 -6 -8 -2 -8 9 0 15 -3 16 -15 6
-8 -7 -13 -15 -11 -19 3 -4 -11 -8 -31 -8 -25 -1 -32 2 -22 8 9 6 10 9 2 9 -7
0 -17 -8 -22 -17 -8 -14 -11 -15 -11 -3 -1 8 -6 4 -12 -10 -6 -14 -10 -29 -9
-35 2 -5 -1 -7 -5 -3 -4 4 -13 0 -21 -10 -8 -9 -12 -12 -9 -6 3 7 -2 18 -11
25 -15 12 -16 12 -10 -3 4 -12 2 -15 -8 -12 -7 3 -18 -4 -25 -15 -6 -12 -19
-21 -29 -21 -10 0 -24 -7 -31 -15 -11 -13 -15 -13 -21 -3 -7 10 -9 10 -10 -2
-1 -8 -1 -18 0 -22 0 -4 -7 -4 -17 -1 -15 6 -16 5 -2 -12 14 -17 14 -18 -7 -6
-22 11 -28 6 -24 -21 0 -4 -27 -7 -62 -6 -80 1 -155 -36 -247 -121 -66 -61
-91 -73 -247 -120 -72 -22 -108 -40 -81 -41 19 0 34 -17 15 -17 -23 0 -168
-74 -162 -83 3 -5 0 -12 -6 -16 -8 -4 -9 -3 -5 4 4 7 3 12 -2 12 -5 0 -12 -9
-15 -21 -4 -16 -2 -19 11 -14 49 18 -13 -17 -78 -45 -41 -18 -81 -37 -87 -42
-9 -7 -13 -7 -13 1 0 6 4 11 8 11 4 0 8 9 8 19 0 18 -2 19 -35 5 -35 -15 -57
-30 -76 -50 -17 -19 -43 -23 -54 -10 -8 10 -8 16 1 23 43 33 567 327 888 498
356 189 1144 651 1535 898 66 42 125 75 130 73 6 -2 9 -11 9 -20z m1596 -38
c0 -5 0 -10 0 -13 -1 -3 7 -13 16 -22 15 -15 14 -17 -5 -28 -17 -9 -19 -13 -9
-25 11 -12 10 -12 -7 0 -30 21 -75 63 -75 70 0 3 9 16 20 28 17 18 24 20 40 9
11 -6 20 -15 20 -19z m1305 -198 c0 -31 -24 -37 -55 -12 -30 24 -18 44 23 40
27 -2 32 -7 32 -28z m-1193 -92 c34 -26 36 -31 27 -60 -5 -18 -16 -39 -24 -47
-13 -14 -21 -12 -69 11 l-55 27 31 56 c32 59 31 59 90 13z m1422 -44 c9 -3 16
-14 16 -23 0 -15 -11 -18 -65 -20 -97 -3 -132 13 -82 37 24 12 106 16 131 6z
m-1549 -56 c14 -6 25 -18 25 -25 0 -8 5 -11 10 -8 6 3 10 -1 10 -10 0 -10 5
-13 12 -9 7 4 8 3 4 -4 -5 -9 -13 -9 -27 -2 -20 11 -23 8 -20 -22 2 -12 -5
-18 -20 -18 -12 0 -33 -12 -46 -26 -23 -25 -28 -26 -94 -20 -43 5 -69 4 -69
-3 0 -5 10 -13 22 -17 18 -5 10 -12 -50 -39 -42 -20 -80 -31 -92 -28 -14 4
-53 -14 -123 -57 -96 -58 -150 -97 -99 -71 12 6 22 9 22 6 0 -3 18 4 40 15 45
23 57 25 38 7 -23 -23 -89 -57 -109 -57 -10 0 -19 -5 -19 -11 0 -5 -4 -8 -9
-4 -5 3 -12 1 -16 -5 -4 -6 -11 -8 -16 -5 -5 4 -9 0 -9 -7 0 -7 -13 -19 -30
-26 -26 -12 -30 -19 -31 -55 l-2 -42 -6 47 c-4 26 -9 50 -13 53 -3 3 -24 -7
-47 -21 -36 -25 -41 -32 -42 -68 -1 -23 -1 -45 0 -50 1 -5 -7 -6 -19 -3 -11 3
-18 1 -15 -3 7 -11 -31 -23 -45 -15 -5 3 -10 2 -10 -3 0 -6 -11 -13 -24 -16
-13 -3 -32 -9 -42 -13 -11 -4 -15 -3 -10 5 4 7 -1 10 -13 9 -15 -1 -17 -4 -9
-14 15 -19 -2 -16 -24 4 -11 10 -19 13 -18 8 5 -25 -2 -32 -27 -29 -27 3 -27
2 -8 -13 l20 -15 -20 6 c-11 3 -27 1 -35 -5 -12 -9 -11 -10 5 -4 16 5 18 4 7
-7 -10 -10 -17 -10 -31 -1 -15 9 -23 9 -37 -3 -11 -9 -13 -13 -6 -9 6 3 12 2
12 -3 0 -5 -9 -12 -20 -15 -12 -3 -18 -1 -14 5 4 6 -3 5 -15 -1 -11 -7 -21
-16 -21 -21 0 -5 -6 -7 -14 -4 -7 3 -20 -1 -27 -8 -8 -7 -27 -20 -44 -28 -16
-8 -32 -17 -35 -20 -3 -3 -25 -18 -50 -32 -25 -15 -53 -33 -63 -40 -18 -13
-17 -14 2 -14 11 0 17 5 14 10 -4 5 1 7 11 3 9 -4 15 -3 12 2 -6 10 -5 10 189
82 220 81 451 157 560 184 124 31 164 47 240 93 75 45 116 82 108 95 -4 6 -1
7 7 2 10 -6 12 -4 7 8 -3 9 -2 19 3 22 5 3 6 13 3 22 -4 10 -2 14 4 10 19 -12
11 -53 -16 -84 -46 -52 -158 -130 -218 -153 -32 -12 -100 -33 -151 -46 -175
-46 -342 -113 -510 -205 -213 -118 -310 -169 -319 -169 -12 0 56 43 142 89 99
54 235 133 235 137 0 5 -139 -45 -165 -59 -11 -6 -32 -10 -47 -9 -22 2 -26 -1
-21 -15 6 -16 5 -17 -12 -3 -10 8 -16 10 -12 3 9 -14 -8 -26 -41 -29 -13 -2
-30 -8 -37 -14 -8 -7 -19 -9 -26 -5 -8 5 -7 0 1 -16 7 -13 9 -21 6 -17 -9 7
-46 -27 -46 -42 0 -18 -17 -10 -28 13 l-11 22 0 -22 c-1 -28 -50 -55 -94 -53
-53 3 -68 1 -62 -10 3 -5 -5 -15 -19 -22 -14 -6 -26 -15 -26 -20 0 -5 5 -6 10
-3 6 3 10 4 10 0 0 -12 -45 -22 -57 -13 -7 5 -18 6 -24 2 -8 -5 -10 -3 -4 7 5
8 -3 4 -17 -8 -13 -13 -29 -23 -36 -23 -6 0 -13 -4 -16 -9 -4 -5 4 -7 16 -4
20 4 18 2 -7 -16 -16 -11 -37 -21 -45 -21 -13 0 -13 1 0 10 8 5 10 10 4 10
-16 0 -45 -35 -37 -44 4 -4 0 -4 -10 -1 -11 5 -28 -2 -48 -19 -31 -27 -56 -35
-43 -14 4 7 3 8 -4 4 -6 -4 -8 -14 -5 -22 5 -13 1 -15 -18 -10 -13 3 -18 3
-11 0 6 -3 9 -10 6 -15 -3 -6 -11 -5 -20 2 -8 6 -15 9 -15 5 -1 -3 -2 -12 -3
-18 -2 -13 -6 -13 -36 -5 -8 2 -12 2 -8 0 10 -6 -17 -33 -31 -33 -6 0 -11 -4
-11 -9 0 -5 -13 -8 -29 -7 -17 1 -28 -1 -25 -5 2 -4 -3 -9 -11 -13 -8 -3 -15
-12 -15 -20 0 -21 -28 -28 -32 -8 -3 15 -6 14 -23 -5 -11 -13 -26 -23 -33 -23
-16 0 -39 -21 -38 -35 1 -5 -38 -15 -87 -22 -48 -7 -101 -20 -117 -28 -31 -16
-42 -32 -15 -21 10 4 15 -1 15 -15 0 -16 -5 -20 -19 -16 -12 3 -18 -1 -17 -12
0 -9 -5 -15 -12 -13 -8 1 -11 -2 -7 -7 3 -6 -3 -15 -14 -21 -14 -7 -22 -7 -27
2 -4 6 -3 8 3 5 5 -3 10 0 10 8 0 13 -3 13 -16 2 -9 -8 -25 -17 -36 -22 -13
-5 -16 -9 -7 -12 7 -3 20 1 29 9 14 11 16 11 8 -2 -6 -8 -10 -19 -10 -25 0 -5
-17 -19 -37 -30 -21 -11 -38 -26 -38 -32 0 -7 -8 -13 -17 -13 -15 0 -16 2 -3
10 13 9 13 10 0 10 -9 0 -26 -8 -39 -17 -14 -9 -74 -24 -139 -34 -63 -9 -119
-22 -124 -27 -15 -15 81 -25 165 -17 237 23 354 84 392 205 l14 45 0 -47 c1
-41 -4 -53 -35 -88 -64 -71 -165 -115 -306 -135 -26 -3 -50 -11 -54 -17 -4 -7
-9 -6 -15 3 -6 10 -13 10 -34 1 -17 -8 -24 -8 -20 -2 8 14 -90 6 -125 -10
l-25 -10 26 5 c17 3 29 0 32 -9 4 -9 -2 -12 -19 -8 -15 3 -32 -2 -44 -13 -11
-10 -23 -15 -27 -12 -3 4 0 7 7 7 7 0 10 3 7 7 -4 3 -15 -1 -24 -9 -10 -9 -61
-32 -113 -53 -149 -58 -386 -175 -535 -265 -75 -44 -214 -116 -308 -159 -95
-43 -217 -99 -272 -125 -55 -25 -107 -46 -116 -46 -9 0 -24 9 -34 20 -17 19
-15 20 66 58 235 111 363 175 679 340 190 99 408 213 485 254 77 41 203 108
280 148 77 40 201 107 275 148 74 41 227 124 340 185 113 60 421 228 685 372
264 144 595 324 735 400 338 183 876 492 995 572 27 18 51 33 52 33 1 0 14 -5
28 -12z m-2230 -118 c-11 -5 -29 -9 -40 -9 l-20 0 20 9 c11 5 29 9 40 9 l20 0
-20 -9z m-91 -61 c31 -14 33 -24 7 -26 -33 -3 -87 -30 -124 -63 -26 -22 -37
-27 -37 -17 0 9 -3 23 -7 33 -4 11 -3 15 4 11 6 -4 16 -1 22 7 9 11 9 15 -1
19 -7 3 -4 6 7 6 11 1 27 6 35 11 10 7 -1 8 -34 3 -39 -5 -48 -3 -44 8 10 29
115 34 172 8z m2181 -49 c-3 -5 -12 -10 -18 -10 -7 0 -6 4 3 10 19 12 23 12
15 0z m25 -11 c0 -11 -4 -18 -10 -14 -5 3 -7 12 -3 20 7 21 13 19 13 -6z m-33
-24 c0 -8 -5 -12 -10 -8 -5 3 -22 -5 -39 -17 -24 -17 -32 -19 -44 -9 -19 16
-6 29 38 39 49 12 55 11 55 -5z m-267 -45 c0 -5 -5 -10 -11 -10 -5 0 -7 5 -4
10 3 6 8 10 11 10 2 0 4 -4 4 -10z m279 -26 c6 -5 -30 -44 -41 -44 -5 0 -7 4
-3 9 3 5 0 13 -6 17 -7 4 -9 3 -6 -2 3 -6 2 -16 -4 -24 -5 -9 -9 -10 -9 -3 0
6 -3 19 -7 29 -4 11 -3 15 4 11 6 -4 14 0 17 9 4 11 13 13 28 8 13 -3 25 -8
27 -10z m-2404 -24 c-55 -7 -163 -37 -140 -40 6 0 -8 -10 -29 -21 -21 -12 -44
-25 -50 -30 -6 -5 -42 -30 -81 -55 -38 -25 -73 -51 -76 -57 -8 -11 -39 -3 -39
10 1 11 103 84 174 123 107 60 165 80 236 78 l65 -1 -60 -7z m1995 -65 c-7 -8
-18 -15 -24 -15 -6 0 -2 7 8 15 25 19 32 19 16 0z m-2494 -159 c8 -9 19 -16
24 -16 5 0 7 -6 4 -13 -2 -7 -19 -14 -37 -15 -41 -3 -207 -54 -207 -64 0 -4
12 -3 27 3 28 10 158 40 171 38 12 -1 -72 -37 -90 -38 -15 -1 -68 -25 -159
-72 -38 -20 -49 -17 -49 12 0 16 54 49 81 49 7 0 9 3 6 7 -4 3 -1 13 5 22 12
15 11 15 -7 0 -55 -44 -59 -34 -8 22 72 80 191 112 239 65z m-357 -209 c-2 -2
-39 -16 -83 -32 -65 -23 -80 -25 -87 -14 -5 8 -9 16 -9 19 0 10 165 46 174 38
5 -4 8 -9 5 -11z m-984 -146 c22 -10 67 -39 100 -65 109 -85 275 -289 275
-339 0 -11 -3 -18 -6 -14 -4 3 -19 0 -35 -8 -15 -8 -32 -15 -37 -15 -5 0 -30
35 -57 78 -27 43 -89 117 -140 167 -116 115 -198 157 -257 131 -27 -13 -10 30
24 59 35 30 77 32 133 6z m2687 -125 c7 4 8 2 4 -5 -9 -13 -26 -5 -25 12 0 9
2 8 6 -1 2 -6 10 -9 15 -6z m199 -57 c-75 -26 -200 -92 -296 -154 -181 -117
-225 -140 -225 -116 0 8 87 63 292 184 76 45 233 107 268 106 8 0 -9 -9 -39
-20z m-3025 -115 c-19 -14 -19 -15 12 -78 48 -97 90 -207 96 -251 2 -22 9 -53
14 -70 6 -16 12 -51 15 -78 5 -47 4 -48 -71 -130 -136 -149 -202 -271 -251
-464 -12 -45 -21 -107 -21 -138 0 -51 -2 -56 -17 -50 -36 15 -89 21 -137 13
-43 -6 -183 4 -228 18 -13 4 -3 22 49 91 36 48 69 96 75 108 6 13 33 32 64 44
98 41 164 134 164 231 0 107 -81 239 -174 285 -140 69 -301 30 -371 -89 -75
-127 -15 -324 122 -402 27 -15 50 -29 52 -30 6 -5 -25 -43 -88 -109 l-62 -65
-58 29 c-106 54 -245 154 -331 241 -93 91 -250 315 -250 355 0 29 23 49 100
84 69 31 455 176 840 315 129 47 285 105 345 130 71 28 114 41 120 34 7 -6 3
-14 -9 -24z m5028 -113 c21 -5 52 -22 68 -38 36 -34 112 -142 105 -150 -3 -2
-23 -7 -45 -10 -37 -5 -41 -3 -77 43 -59 75 -118 134 -132 134 -20 0 -17 -5
38 -72 50 -62 76 -105 68 -111 -2 -2 -53 -29 -113 -61 -87 -44 -112 -54 -121
-44 -6 7 -37 46 -69 86 -32 40 -72 80 -87 89 -16 10 -29 21 -29 25 0 9 56 38
160 84 80 36 153 43 234 25z m-2552 -77 c-15 -6 -30 -9 -34 -7 -5 2 -8 0 -8
-5 0 -9 -143 -82 -160 -82 -4 0 -10 6 -13 14 -4 11 11 21 56 36 34 11 87 34
117 49 38 20 57 25 62 18 4 -7 -4 -16 -20 -23z m-324 -21 c-10 -2 -28 -2 -40
0 -13 2 -5 4 17 4 22 1 32 -1 23 -4z m66 -70 c4 -9 3 -19 -1 -23 -12 -10 -134
-62 -137 -58 -1 1 -7 20 -13 40 l-11 37 62 9 c89 14 93 14 100 -5z m2386 -40
c16 -20 20 -36 16 -57 -4 -17 -10 -32 -14 -36 -14 -10 -7 -29 29 -77 91 -122
179 -283 235 -428 29 -77 40 -160 22 -171 -7 -4 -8 -3 -4 4 4 7 1 12 -10 12
-11 0 -15 -6 -11 -20 3 -11 1 -23 -4 -26 -5 -3 -7 -10 -4 -15 7 -11 -5 -12
-21 -1 -6 4 -14 50 -17 102 -3 52 -16 126 -27 164 -25 79 -80 202 -104 231
-15 18 -15 17 0 -15 36 -73 83 -230 89 -297 6 -52 3 -84 -9 -127 -18 -62 -77
-137 -104 -134 -10 1 -43 -2 -75 -6 -37 -5 -79 -4 -113 3 -39 7 -69 7 -104 0
-48 -10 -106 -51 -96 -68 7 -11 -33 -53 -44 -46 -12 7 -3 55 21 118 33 85 20
243 -26 314 -23 35 -38 27 -18 -9 12 -24 17 -59 17 -123 1 -79 -2 -97 -26
-145 -47 -96 -145 -178 -308 -260 -138 -70 -668 -283 -768 -310 -24 -6 -50
-14 -59 -17 -10 -4 -14 -2 -10 4 4 6 -21 12 -70 16 -107 8 -156 35 -210 117
-24 36 -43 71 -43 78 0 7 -4 11 -9 7 -5 -3 -9 7 -9 23 1 16 -4 37 -11 48 -19
29 -7 -95 12 -132 54 -103 152 -167 258 -168 l66 -1 -86 -42 c-117 -58 -161
-95 -161 -137 0 -25 -10 -42 -48 -79 -27 -26 -51 -45 -55 -42 -4 3 -5 2 -2 -2
7 -9 -25 -43 -41 -43 -7 0 -14 5 -16 12 -3 8 -14 5 -35 -10 -44 -31 -103 -29
-142 4 -37 31 -42 17 -5 -17 18 -17 37 -24 70 -24 48 0 57 -10 22 -26 -21 -8
-20 -9 7 -5 l30 5 -34 -15 c-47 -21 -100 -14 -123 16 -10 14 -31 63 -48 110
-33 95 -100 232 -131 270 l-20 25 12 -25 c12 -25 12 -25 -8 -7 -11 10 -36 40
-54 67 -19 28 -38 50 -43 50 -4 0 0 -12 10 -27 73 -110 151 -278 187 -400 18
-61 19 -60 -69 -86 l-52 -15 -45 121 c-100 265 -217 497 -283 557 -28 25 -26
16 8 -32 26 -37 14 -62 -25 -54 -17 4 -38 13 -47 21 -8 8 -32 15 -52 17 -34 2
-36 4 -42 46 -9 67 -7 94 8 124 16 29 12 38 -16 38 -27 0 -22 14 17 49 69 60
107 73 273 87 177 15 232 24 397 65 366 89 763 253 1443 593 357 179 442 215
571 242 63 14 121 29 130 34 26 15 38 12 61 -17z m-2749 -26 c-10 -9 -11 -8
-5 6 3 10 9 15 12 12 3 -3 0 -11 -7 -18z m3371 6 c27 -30 79 -124 119 -213 37
-82 37 -85 18 -92 -42 -16 -65 1 -93 66 -15 34 -49 99 -76 145 -28 46 -50 88
-50 92 0 22 63 24 82 2z m-134 -35 c7 -7 12 -17 12 -24 0 -6 18 -43 40 -80 28
-48 39 -76 35 -92 -3 -13 -2 -21 3 -18 5 3 9 -1 9 -9 0 -8 -4 -12 -8 -9 -5 2
-6 -9 -4 -26 2 -16 -1 -33 -7 -36 -6 -4 -8 -2 -5 3 4 6 0 14 -9 17 -12 4 -15
2 -10 -9 5 -13 -5 -20 -26 -16 -5 0 -8 -6 -8 -14 0 -8 -5 -15 -11 -15 -5 0 -8
-4 -5 -9 3 -4 -5 -7 -19 -6 -27 4 -50 -18 -40 -37 4 -7 -5 1 -20 17 -14 17
-24 24 -20 18 3 -7 4 -13 1 -13 -3 0 -22 32 -42 71 -19 40 -51 96 -71 125 -19
29 -32 58 -28 64 7 12 193 109 211 109 5 1 15 -4 22 -11z m-3668 -232 c-7 -7
-13 -7 -20 0 -6 6 -3 10 10 10 13 0 16 -4 10 -10z m185 -62 c-33 -7 -77 -13
-97 -14 -50 0 -237 -36 -323 -62 -72 -22 -157 -55 -257 -102 -31 -14 -61 -26
-67 -26 -5 0 -11 -4 -13 -9 -4 -12 -188 -104 -195 -98 -9 10 133 96 250 152
193 93 383 145 593 164 151 13 181 12 109 -5z m-1079 -150 c4 -14 3 -29 -2
-34 -19 -18 -245 -131 -255 -128 -14 5 110 120 170 159 56 36 79 37 87 3z
m567 -140 c-67 -7 -139 -18 -160 -23 -21 -6 -56 -10 -78 -9 -32 1 -34 2 -10 5
17 2 57 10 90 18 72 18 107 22 205 22 68 1 64 0 -47 -13z m-286 -40 c-3 -3
-12 -4 -19 -1 -8 3 -5 6 6 6 11 1 17 -2 13 -5z m-142 -63 c-27 -10 -94 -28
-148 -39 -92 -20 -264 -82 -276 -100 -11 -15 -98 -55 -112 -50 -7 2 47 35 121
71 122 61 268 109 390 130 62 11 73 5 25 -12z m3989 -161 c-6 -6 -28 -13 -50
-15 l-39 -5 40 14 c50 17 62 19 49 6z m-195 -29 c16 -10 18 -9 -79 -31 -57
-12 -70 -12 -70 -1 0 13 70 40 105 40 17 1 37 -3 44 -8z m-4709 -37 c56 -22
189 -184 249 -301 24 -47 25 -53 12 -53 -5 0 -39 45 -75 99 -60 90 -123 158
-184 199 -20 13 -29 13 -62 2 -22 -7 -40 -17 -40 -21 0 -4 27 -39 61 -76 73
-81 153 -192 182 -251 17 -34 19 -44 8 -55 -10 -10 -11 -8 -5 8 4 11 4 17 0
13 -5 -4 -31 28 -59 70 -29 42 -105 132 -171 200 -65 67 -117 125 -113 128 10
10 122 54 139 54 10 0 36 -7 58 -16z m4438 -76 c-7 -4 -23 -6 -35 -3 -12 3
-28 -1 -36 -10 -8 -8 -17 -12 -20 -8 -3 3 15 20 41 38 45 31 47 32 55 12 5
-13 3 -23 -5 -29z m-2610 -160 c-5 -42 -5 -103 0 -147 8 -64 7 -78 -5 -88 -34
-26 -336 -174 -458 -223 -71 -29 -172 -63 -225 -76 -83 -22 -108 -24 -200 -18
-122 7 -152 -1 -221 -63 -23 -21 -40 -33 -36 -26 4 6 3 22 -2 35 -5 14 -6 29
-3 35 4 5 88 50 187 100 257 129 571 305 885 497 41 25 78 46 81 46 3 0 2 -32
-3 -72z m2117 -48 c-11 -5 -27 -9 -35 -9 -9 0 -8 4 5 9 11 5 27 9 35 9 9 0 8
-4 -5 -9z m1858 3 c-7 -2 -19 -2 -25 0 -7 3 -2 5 12 5 14 0 19 -2 13 -5z m60
0 c-7 -2 -21 -2 -30 0 -10 3 -4 5 12 5 17 0 24 -2 18 -5z m-106 -9 c-3 -3 -12
-4 -19 -1 -8 3 -5 6 6 6 11 1 17 -2 13 -5z m-1867 -12 c0 -10 -130 -56 -137
-48 -3 3 7 10 23 17 16 6 43 17 59 24 35 16 55 18 55 7z m1986 -19 c10 -10 27
-23 38 -28 12 -6 27 -23 34 -38 12 -24 11 -32 -2 -51 -13 -21 -19 -23 -58 -16
-44 9 -94 52 -82 72 4 7 2 8 -4 4 -7 -4 -12 -17 -12 -30 0 -21 -17 -46 -31
-46 -10 0 -29 59 -29 92 0 23 7 32 33 43 44 20 92 18 113 -2z m-3700 -24 c12
-24 13 -34 4 -43 -8 -8 -9 -6 -4 9 7 18 6 18 -9 6 -15 -12 -17 -11 -17 3 0 9
-7 16 -15 16 -12 0 -12 3 3 19 9 11 18 20 19 20 1 1 10 -13 19 -30z m3493 27
c-2 -2 -15 -9 -29 -15 -24 -11 -24 -11 -6 3 16 13 49 24 35 12z m-1929 -45 c0
-5 -13 -12 -30 -16 -16 -4 -30 -11 -30 -17 0 -5 -6 -8 -12 -5 -7 2 -33 -6 -58
-19 -25 -13 -53 -24 -62 -24 -10 0 -18 -5 -18 -11 0 -6 -9 -9 -20 -6 -11 3
-18 0 -17 -7 1 -6 -4 -10 -12 -8 -23 5 -62 -8 -56 -18 4 -6 -1 -7 -11 -3 -11
4 -15 3 -10 -5 4 -7 -3 -10 -21 -9 -16 1 -27 -3 -26 -9 1 -7 -8 -9 -23 -6 -24
4 -22 6 18 24 24 11 97 41 163 67 66 27 138 55 160 64 46 19 65 21 65 8z
m1840 -5 c0 -2 -8 -10 -17 -17 -16 -13 -17 -12 -4 4 13 16 21 21 21 13z
m-3548 -91 c36 -25 98 -103 98 -124 0 -24 -21 -8 -59 43 -22 29 -55 65 -73 80
-43 33 -15 34 34 1z m-50 -52 c14 -16 38 -47 54 -71 31 -49 27 -56 -35 -68
-30 -6 -36 -3 -60 27 -14 19 -40 47 -58 63 l-33 29 33 23 c43 31 68 30 99 -3z
m3969 -3 c9 0 19 -7 23 -15 5 -13 -12 -15 -112 -15 -91 1 -113 3 -98 12 23 13
122 27 151 22 11 -2 27 -4 36 -4z m-4056 -89 c20 -29 33 -57 28 -61 -11 -11
-223 -83 -245 -84 -10 0 -18 -4 -18 -9 0 -5 -6 -7 -12 -4 -7 2 -35 -2 -63 -9
-38 -10 -51 -11 -57 -1 -6 9 -8 9 -8 -1 0 -7 -5 -10 -10 -7 -6 4 -8 10 -5 15
3 5 -45 -12 -107 -37 -175 -70 -278 -93 -420 -93 -137 0 -173 -11 -216 -68
-21 -28 -27 -48 -30 -103 -3 -38 -7 -69 -11 -70 -3 0 -14 -2 -23 -4 -16 -3
-18 5 -18 53 0 68 24 126 72 174 59 58 89 67 223 65 98 -1 135 3 200 22 126
35 316 113 495 204 91 45 170 80 177 77 6 -3 28 -29 48 -59z m1360 39 c-3 -5
-12 -10 -18 -10 -7 0 -6 4 3 10 19 12 23 12 15 0z m-25 -30 c8 -5 11 -10 5
-10 -5 0 -17 5 -25 10 -8 5 -10 10 -5 10 6 0 17 -5 25 -10z m-1210 -105 c0 -8
0 -18 1 -22 0 -4 -4 -9 -9 -11 -12 -4 -24 26 -16 39 8 14 24 11 24 -6z m-50
-41 c6 -14 8 -29 5 -33 -2 -4 -39 -18 -82 -31 -98 -28 -245 -87 -369 -145 -52
-25 -98 -45 -103 -45 -5 0 -14 -7 -21 -15 -8 -10 -21 -13 -39 -8 -14 4 -33 6
-43 6 -66 -5 108 110 272 179 105 44 321 117 348 117 15 1 26 -7 32 -25z
m4000 1 c-7 -8 -20 -15 -29 -15 -11 0 -8 5 9 14 33 19 35 19 20 1z m-3103
-100 c0 -8 -4 -12 -9 -9 -5 3 -6 10 -3 15 9 13 12 11 12 -6z m-1867 -116 c62
-38 105 -96 88 -117 -41 -49 -209 -104 -272 -88 -48 12 -62 102 -26 161 23 37
90 75 132 75 15 0 50 -14 78 -31z"/>
<path d="M7255 5480 c3 -5 8 -10 11 -10 2 0 4 5 4 10 0 6 -5 10 -11 10 -5 0
-7 -4 -4 -10z"/>
<path d="M6810 5379 c0 -5 -5 -7 -12 -3 -7 4 -8 3 -4 -4 4 -6 13 -9 21 -6 8 4
12 10 9 15 -7 12 -14 11 -14 -2z"/>
<path d="M6720 5370 c-9 -6 -10 -10 -3 -10 6 0 15 5 18 10 8 12 4 12 -15 0z"/>
<path d="M6621 5300 c-41 -28 -72 -50 -67 -50 12 0 68 31 106 58 50 36 56 42
45 42 -6 -1 -44 -23 -84 -50z"/>
<path d="M6500 5225 c-14 -8 -19 -14 -10 -14 8 0 24 6 34 14 25 19 9 19 -24 0z"/>
<path d="M5074 5734 c3 -9 6 -26 6 -39 0 -18 15 -31 82 -66 106 -55 177 -125
206 -202 12 -32 22 -72 21 -90 l0 -32 -13 40 c-32 100 -98 189 -179 239 -54
33 -160 67 -216 69 -115 3 -220 -52 -261 -138 -20 -41 -21 -52 -11 -85 24 -80
142 -191 260 -244 113 -51 252 -44 341 16 40 27 119 135 119 163 1 33 21 2 23
-36 1 -42 -14 -73 -60 -121 -42 -44 -33 -49 21 -13 76 52 88 138 35 246 -43
88 -177 221 -274 272 -78 40 -110 47 -100 21z m222 -400 c20 -49 12 -66 -49
-100 -44 -24 -63 -28 -122 -28 -70 1 -161 28 -165 49 -2 12 148 79 221 99 86
23 98 21 115 -20z"/>
<path d="M4455 5731 c-93 -15 -150 -79 -203 -228 -31 -85 -101 -191 -116 -175
-4 3 -4 -1 0 -11 6 -15 9 -15 36 4 16 12 43 39 58 61 29 39 91 196 92 233 2
27 46 74 85 91 34 15 106 11 156 -8 l27 -10 0 -115 c0 -63 4 -112 8 -109 5 3
12 47 15 98 4 51 10 103 13 116 5 18 1 24 -27 36 -47 19 -97 25 -144 17z"/>
<path d="M3365 5379 c-4 -6 -5 -12 -2 -15 2 -3 7 2 10 11 7 17 1 20 -8 4z"/>
<path d="M3483 5353 c-12 -24 -11 -25 6 -9 22 20 31 17 146 -52 105 -63 125
-79 125 -102 0 -17 -48 -66 -92 -93 -15 -9 -32 -27 -39 -38 -8 -15 -8 -19 0
-15 14 9 14 -9 0 -32 -8 -13 -9 -34 -3 -68 8 -43 14 -51 52 -72 36 -20 45 -22
59 -10 13 10 15 10 9 0 -4 -7 -429 -293 -944 -636 -538 -358 -960 -646 -992
-676 -61 -57 -53 -53 110 54 58 38 206 135 330 216 124 81 405 266 625 412
778 515 814 538 845 538 69 0 285 -63 397 -117 81 -38 181 -123 215 -184 12
-21 25 -39 29 -39 4 0 34 30 66 66 32 36 69 71 83 79 23 13 24 14 6 21 -13 5
-33 0 -57 -13 l-37 -20 -78 63 c-124 99 -257 162 -479 224 -92 26 -165 60
-195 92 -20 22 -28 95 -14 132 11 30 20 16 16 -25 -3 -22 1 -46 7 -52 8 -8 11
-1 11 29 0 44 15 65 78 113 23 18 42 39 42 46 0 19 -62 76 -77 71 -7 -3 -12 0
-10 5 2 13 -174 110 -185 102 -5 -2 -8 0 -8 4 0 20 -36 9 -47 -14z"/>
<path d="M3351 5313 c-1 -51 11 -65 126 -134 45 -28 96 -63 112 -80 l30 -29
20 29 21 30 -32 24 c-30 22 -80 52 -220 131 -29 16 -48 35 -51 49 -2 12 -5 3
-6 -20z"/>
<path d="M3390 5316 c0 -2 7 -7 16 -10 8 -3 12 -2 9 4 -6 10 -25 14 -25 6z"/>
<path d="M3823 5139 c-17 -5 -45 -23 -62 -40 -35 -35 -41 -80 -15 -117 8 -12
12 -22 8 -22 -3 0 -1 -7 6 -15 7 -8 17 -15 23 -15 6 0 2 7 -9 15 -18 14 -17
15 8 4 15 -7 25 -15 23 -19 -4 -7 80 4 115 15 29 9 60 54 60 87 0 39 -35 87
-76 104 -37 16 -37 16 -81 3z m105 -45 c69 -48 -29 -146 -114 -114 -34 13 -44
26 -44 62 0 57 103 91 158 52z"/>
<path d="M3833 5069 c-18 -18 -3 -39 27 -39 15 0 30 6 33 14 7 17 -11 36 -33
36 -9 0 -21 -5 -27 -11z"/>
<path d="M4535 4513 c-25 -26 -45 -50 -45 -55 0 -15 -56 -36 -83 -31 -22 4
-26 2 -21 -10 19 -50 111 -14 173 67 67 86 50 106 -24 29z"/>
<path d="M8700 4735 c13 -14 26 -25 28 -25 3 0 -5 11 -18 25 -13 14 -26 25
-28 25 -3 0 5 -11 18 -25z"/>
<path d="M6445 5100 c-3 -5 -1 -10 4 -10 6 0 11 5 11 10 0 6 -2 10 -4 10 -3 0
-8 -4 -11 -10z"/>
<path d="M5900 4590 c8 -5 20 -10 25 -10 6 0 3 5 -5 10 -8 5 -19 10 -25 10 -5
0 -3 -5 5 -10z"/>
<path d="M5150 4130 c0 -5 4 -10 9 -10 6 0 13 5 16 10 3 6 -1 10 -9 10 -9 0
-16 -4 -16 -10z"/>
<path d="M5064 4114 c-18 -14 -18 -15 4 -4 12 6 22 13 22 15 0 8 -5 6 -26 -11z"/>
<path d="M5175 4117 c-11 -9 -15 -19 -10 -28 6 -11 5 -11 -5 -2 -10 9 -16 8
-28 -3 -8 -8 -11 -18 -8 -22 4 -3 11 0 15 7 5 7 14 10 21 6 13 -8 50 22 50 42
0 17 -11 17 -35 0z"/>
<path d="M4945 4021 c3 -5 -1 -12 -7 -14 -8 -4 -7 -6 4 -6 23 -1 32 15 12 23
-8 3 -13 2 -9 -3z"/>
<path d="M3876 3432 c-2 -4 4 -8 15 -8 10 0 19 4 19 8 0 4 -6 8 -14 8 -8 0
-17 -4 -20 -8z"/>
<path d="M3840 3416 c0 -2 7 -7 16 -10 8 -3 12 -2 9 4 -6 10 -25 14 -25 6z"/>
<path d="M3805 3387 l-20 -20 25 13 c32 16 33 17 23 23 -4 2 -17 -5 -28 -16z"/>
<path d="M5346 2982 c-3 -5 1 -9 9 -9 8 0 15 4 15 9 0 4 -4 8 -9 8 -6 0 -12
-4 -15 -8z"/>
<path d="M4935 2730 c3 -5 8 -10 11 -10 2 0 4 5 4 10 0 6 -5 10 -11 10 -5 0
-7 -4 -4 -10z"/>
<path d="M4880 2720 c-12 -7 -10 -9 7 -7 12 0 19 5 17 9 -6 10 -6 10 -24 -2z"/>
<path d="M7570 4031 c0 -5 7 -11 14 -14 10 -4 13 -1 9 9 -6 15 -23 19 -23 5z"/>
<path d="M3316 2812 c-3 -5 1 -15 9 -22 16 -14 20 -3 6 19 -5 8 -11 9 -15 3z"/>
<path d="M7773 2441 c29 -28 63 -69 75 -93 13 -24 17 -34 10 -23 -7 11 -37 44
-67 75 -46 47 -48 48 -12 7 146 -166 125 -384 -37 -381 -82 1 -142 62 -142
144 0 83 97 140 156 92 50 -40 57 -95 18 -141 -20 -24 -34 -31 -63 -31 -20 0
-48 8 -61 17 l-25 16 24 -26 c61 -68 167 -23 178 75 4 38 1 48 -31 85 -47 54
-97 65 -154 33 -73 -41 -92 -121 -51 -208 56 -115 217 -131 293 -29 32 43 35
156 6 243 -19 55 -34 78 -86 130 -35 35 -68 64 -73 64 -5 0 14 -22 42 -49z"/>
<path d="M7702 2234 c9 -3 19 -12 22 -21 8 -20 -15 -37 -26 -20 -5 8 -8 6 -8
-5 0 -13 8 -18 25 -18 49 0 43 63 -6 67 -13 1 -17 -1 -7 -3z"/>
<path d="M7318 2117 c3 -42 -1 -75 -11 -100 -9 -20 -12 -37 -8 -37 27 0 47
145 25 183 -7 12 -9 0 -6 -46z"/>
<path d="M5330 1486 c0 -2 8 -10 18 -17 15 -13 16 -12 3 4 -13 16 -21 21 -21
13z"/>
<path d="M5516 1412 c-3 -6 13 -28 35 -51 44 -44 113 -71 179 -71 77 0 118
-29 134 -92 19 -78 -76 -155 -145 -118 -21 12 -25 40 -7 58 19 19 28 14 28
-13 0 -35 36 -34 52 1 11 23 10 29 -11 45 -64 52 -153 -63 -94 -122 31 -31 94
-36 142 -11 33 17 40 18 45 6 6 -16 26 -19 26 -3 0 5 -4 8 -9 5 -17 -11 -20
23 -6 51 20 37 19 107 -2 150 -19 41 -66 73 -106 73 -36 0 -27 16 14 24 22 4
30 10 25 21 -3 8 -1 15 3 15 5 0 11 -5 13 -11 2 -7 8 -6 16 4 10 12 7 14 -22
12 -19 -2 -42 -7 -52 -13 -34 -17 -96 -22 -143 -11 -64 15 -75 17 -84 18 -5 1
-6 5 -3 10 3 5 -1 14 -8 20 -9 7 -17 8 -20 3z m211 -88 c-3 -3 -12 -4 -19 -1
-8 3 -5 6 6 6 11 1 17 -2 13 -5z"/>
<path d="M6000 1256 c0 -2 8 -10 18 -17 15 -13 16 -12 3 4 -13 16 -21 21 -21
13z"/>
<path d="M8893 1458 c1 -13 8 -29 15 -36 7 -8 9 -19 5 -25 -3 -7 -2 -9 2 -4
20 18 8 87 -15 87 -5 0 -9 -10 -7 -22z"/>
<path d="M5140 1501 c0 -5 5 -13 10 -16 6 -3 10 -2 10 4 0 5 -4 13 -10 16 -5
3 -10 2 -10 -4z"/>
<path d="M1315 4857 c-7 -36 -1 -57 16 -57 12 0 12 60 0 79 -7 11 -11 5 -16
-22z"/>
<path d="M1395 4690 c-3 -5 -3 -16 1 -22 5 -10 4 -10 -6 -1 -10 9 -19 9 -41
-3 -26 -13 -29 -20 -29 -62 0 -26 -5 -81 -10 -122 -9 -68 -8 -76 9 -94 19 -19
20 -19 25 15 3 19 8 68 11 109 3 41 10 77 15 78 6 2 8 8 4 13 -5 9 10 13 30
10 5 -1 4 4 -2 12 -10 12 -7 14 17 11 22 -3 30 1 34 16 3 11 1 18 -4 15 -10
-7 -53 14 -45 22 3 3 14 0 23 -8 16 -13 17 -12 4 4 -15 19 -27 22 -36 7z"/>
<path d="M1153 4552 c3 -11 -29 -53 -36 -46 -4 4 -5 -3 -2 -15 2 -11 -1 -21
-7 -21 -6 0 -9 -2 -6 -5 8 -8 39 6 33 15 -3 5 -1 11 5 15 6 4 8 10 5 15 -3 4
2 11 10 14 13 4 13 2 5 -14 -15 -28 -13 -31 18 -24 36 9 36 9 17 37 -15 23
-48 46 -42 29z"/>
<path d="M1082 4511 c-11 -7 -11 -9 2 -14 10 -4 16 -1 16 8 0 17 -1 17 -18 6z"/>
<path d="M1056 4464 c-5 -14 -4 -15 9 -4 17 14 19 20 6 20 -5 0 -12 -7 -15
-16z"/>
<path d="M1440 3755 c6 -8 9 -23 5 -35 -8 -24 1 -26 21 -5 18 18 3 55 -23 55
-12 0 -13 -3 -3 -15z"/>
<path d="M9303 2034 c3 -3 -4 -15 -15 -26 -19 -19 -19 -20 -2 -39 13 -15 19
-17 26 -7 12 20 10 78 -4 78 -6 0 -9 -3 -5 -6z"/>
<path d="M9600 1390 c0 -5 5 -10 10 -10 6 0 10 5 10 10 0 6 -4 10 -10 10 -5 0
-10 -4 -10 -10z"/>
<path d="M9661 1353 c-27 -18 -30 -23 -14 -23 18 0 61 36 52 43 -2 2 -19 -7
-38 -20z"/>
<path d="M9867 1354 c-4 -4 -7 -19 -7 -33 l0 -26 -172 0 c-175 0 -234 -9 -273
-41 -11 -8 -13 -12 -5 -8 13 7 13 5 2 -8 -9 -11 -10 -18 -2 -23 5 -3 10 -3 10
2 0 13 36 -50 47 -82 9 -28 10 -27 10 18 0 26 5 53 11 59 9 9 12 8 12 -6 0
-10 5 -14 11 -10 8 5 10 -3 7 -25 -4 -28 -3 -30 12 -16 9 8 23 15 30 15 7 0
22 8 33 17 18 17 19 17 33 -1 7 -11 17 -35 20 -53 5 -24 14 -37 31 -44 35 -13
41 -12 59 16 15 23 15 27 0 50 -38 58 48 12 92 -49 29 -40 36 -45 53 -36 15 9
21 7 26 -7 4 -10 15 -30 25 -44 15 -20 17 -31 9 -52 -10 -26 -9 -27 19 -27 49
0 88 58 78 115 -3 13 -1 22 3 19 14 -8 29 33 28 78 -1 24 -3 35 -6 26 -4 -15
-8 -14 -28 10 -13 16 -44 40 -69 53 -44 23 -46 26 -46 66 0 24 -4 43 -9 43 -5
0 -16 2 -23 5 -8 3 -17 2 -21 -1z m-142 -254 c-3 -5 -12 -10 -18 -10 -7 0 -6
4 3 10 19 12 23 12 15 0z"/>
<path d="M9546 1134 c-19 -18 -21 -60 -4 -70 7 -4 8 -3 4 4 -5 8 -2 10 9 6 8
-4 21 -1 29 5 7 6 16 8 19 4 4 -3 7 3 7 15 0 21 -24 52 -40 52 -5 0 -16 -7
-24 -16z"/>
<path d="M9075 1120 c-3 -5 -1 -10 4 -10 6 0 11 5 11 10 0 6 -2 10 -4 10 -3 0
-8 -4 -11 -10z"/>
<path d="M8860 970 c0 -35 17 -39 61 -13 35 21 36 29 7 37 -52 13 -68 8 -68
-24z"/>
<path d="M9812 980 c-27 -16 -31 -24 -26 -44 7 -30 -33 -76 -66 -76 -27 0 -25
11 10 55 36 45 36 45 10 45 -11 0 -20 -6 -20 -14 0 -8 -9 -18 -20 -21 -11 -3
-20 -10 -20 -15 0 -4 -9 -6 -20 -3 -11 3 -20 0 -20 -6 0 -7 -8 -8 -26 0 -15 5
-29 8 -31 5 -8 -8 55 -24 83 -20 l29 4 -30 -14 c-25 -12 -27 -15 -12 -21 26
-10 21 -24 -14 -39 -17 -7 -30 -17 -29 -22 2 -19 -33 -83 -43 -77 -6 4 -7 1
-3 -6 5 -7 5 -24 1 -39 -5 -19 -9 -22 -15 -13 -6 11 -14 8 -36 -12 l-28 -26
31 -18 31 -17 6 -151 c3 -82 8 -170 12 -194 4 -28 2 -52 -7 -68 -11 -20 -11
-26 1 -34 13 -8 13 -10 0 -19 -8 -6 -31 -15 -51 -20 -41 -11 -66 -34 -49 -45
6 -3 8 -11 5 -16 -7 -11 47 -11 161 -3 l80 7 2 41 c0 22 -4 85 -10 139 -6 54
-8 100 -5 103 3 3 14 -20 26 -51 15 -40 21 -80 22 -149 0 -51 4 -98 9 -105 5
-10 25 -11 73 -6 l66 7 -14 28 c-20 39 -75 57 -75 25 0 -8 -7 -15 -15 -15 -17
0 -19 9 -6 29 6 10 21 12 50 8 l42 -5 -6 46 c-4 26 -13 82 -22 126 -13 70 -13
82 0 110 52 106 77 173 77 207 0 22 4 39 10 39 5 0 -11 30 -37 66 -32 47 -58
72 -89 87 -48 23 -54 33 -26 41 48 16 92 117 73 168 -6 17 -8 17 -39 -2z
m-146 -255 c15 -14 23 -25 18 -26 -5 0 -31 -3 -58 -5 l-48 -6 21 31 c27 37 32
38 67 6z m54 -32 c0 -5 -5 -15 -10 -23 -7 -12 -9 -10 -7 8 1 19 17 33 17 15z
m-102 -50 c-23 -4 -28 -10 -29 -36 -1 -25 -3 -27 -6 -9 -7 37 4 52 34 51 l28
-2 -27 -4z m-61 -25 c-3 -8 -6 -5 -6 6 -1 11 2 17 5 13 3 -3 4 -12 1 -19z m83
-3 c0 -8 -9 -15 -20 -15 -11 0 -20 7 -20 15 0 8 9 15 20 15 11 0 20 -7 20 -15z
m204 -40 c9 -9 17 -11 21 -5 8 13 45 13 45 0 0 -15 -38 -88 -49 -95 -6 -3 -19
0 -31 7 -15 10 -20 23 -20 60 0 50 8 58 34 33z"/>
<path d="M8690 958 c0 -23 10 -46 31 -71 17 -21 30 -39 28 -40 -2 -1 -20 -10
-40 -20 -21 -11 -46 -36 -59 -59 -13 -23 -32 -50 -44 -62 -27 -27 -31 -58 -9
-73 22 -17 48 -16 66 2 13 13 16 7 26 -48 6 -34 10 -83 9 -108 -3 -39 -5 -44
-15 -30 -11 14 -12 14 -13 -2 0 -10 -4 -15 -10 -12 -15 9 -12 -8 5 -31 19 -25
19 -120 0 -221 -8 -43 -15 -79 -15 -80 0 -2 8 -3 17 -3 13 0 11 -6 -10 -28
-43 -45 -36 -53 41 -50 67 3 67 3 68 33 1 17 6 41 11 55 6 14 13 52 16 85 4
33 13 78 21 100 14 38 15 34 15 -106 l1 -146 68 -6 c119 -12 149 -9 155 12 6
23 -21 51 -49 51 -11 0 -29 7 -40 15 -17 13 -17 14 -1 15 20 0 21 4 5 33 -13
24 -12 199 1 226 4 9 6 57 4 108 -3 81 -1 93 16 105 10 8 21 20 22 28 4 15
-35 78 -56 92 -5 4 -6 8 -1 8 5 0 2 7 -5 17 -8 9 -13 24 -11 33 2 10 -9 27
-22 38 -24 19 -25 20 -6 25 15 4 20 14 20 36 0 28 -3 31 -32 32 l-33 2 35 7
35 7 -39 2 c-27 1 -48 9 -65 25 -18 17 -43 26 -83 31 l-58 6 0 -33z m114 -14
c20 -19 21 -34 2 -34 -18 0 -39 27 -31 40 8 13 11 13 29 -6z m103 -207 c-4
-14 -75 -19 -83 -6 -5 9 8 13 38 10 9 -1 19 3 23 9 8 13 27 2 22 -13z m-97
-37 c0 -5 -4 -10 -10 -10 -5 0 -10 5 -10 10 0 6 5 10 10 10 6 0 10 -4 10 -10z
m75 -41 c12 -18 -3 -22 -20 -5 -14 14 -14 16 -1 16 8 0 18 -5 21 -11z"/>
<path d="M9620 972 l-24 -19 23 -12 c35 -19 66 -10 66 19 0 32 -33 38 -65 12z"/>
<path d="M8980 966 c0 -19 26 -27 39 -12 13 15 4 26 -21 26 -10 0 -18 -6 -18
-14z"/>
<path d="M9537 944 c-8 -8 1 -24 14 -24 5 0 9 7 9 15 0 15 -12 20 -23 9z"/>
<path d="M1516 809 c-9 -44 -7 -72 4 -89 9 -13 11 -13 20 0 5 8 10 32 10 52 0
68 -23 93 -34 37z"/>
<path d="M7110 713 c0 -28 5 -55 10 -58 13 -8 13 75 0 95 -7 11 -10 0 -10 -37z"/>
<path d="M233 598 c-13 -6 -23 -20 -23 -30 0 -18 2 -17 29 3 26 19 37 21 93
15 34 -4 68 -12 75 -18 7 -6 13 -8 13 -4 0 3 -15 15 -32 26 -37 22 -117 26
-155 8z"/>
<path d="M1628 585 c-3 -3 -34 -14 -69 -23 l-64 -17 -7 -55 c-13 -114 -9 -165
14 -195 20 -26 22 -26 29 -8 4 10 10 54 14 96 8 81 13 90 60 101 58 13 115 39
115 52 0 7 -15 22 -34 33 -34 21 -48 25 -58 16z"/>
<path d="M7158 557 l-48 -21 0 -60 c0 -34 -3 -70 -6 -81 -4 -15 3 -25 24 -37
16 -10 32 -15 36 -11 3 3 6 35 6 69 l0 64 49 25 c61 31 67 40 39 59 -28 20
-41 19 -100 -7z"/>
<path d="M8590 560 c0 -19 37 -80 49 -80 5 0 14 7 21 15 10 12 10 15 -1 15 -8
0 -26 14 -41 32 -17 20 -28 27 -28 18z"/>
<path d="M1195 493 l-49 -4 53 -30 c30 -16 60 -29 67 -29 11 0 76 26 93 37 2
1 -2 9 -9 18 -12 15 -40 16 -155 8z"/>
<path d="M226 450 c8 -28 31 -49 54 -49 9 0 5 5 -9 13 -13 7 -30 24 -38 37
l-14 24 7 -25z"/>
<path d="M265 450 c3 -5 11 -10 16 -10 6 0 7 5 4 10 -3 6 -11 10 -16 10 -6 0
-7 -4 -4 -10z"/>
<path d="M2158 435 c-7 -15 -17 -24 -25 -21 -16 6 -43 -3 -43 -14 0 -5 8 -7
18 -5 19 3 53 -12 64 -28 8 -13 47 31 48 54 0 18 -19 39 -37 39 -7 0 -19 -11
-25 -25z"/>
<path d="M6933 440 c-46 -21 -50 -27 -30 -54 12 -17 15 -16 65 3 29 12 62 21
73 21 18 0 19 1 3 25 -20 30 -51 31 -111 5z"/>
<path d="M8980 431 c0 -12 6 -21 15 -21 8 0 15 4 15 9 0 5 -7 14 -15 21 -13
10 -15 9 -15 -9z"/>
<path d="M772 421 c-69 -17 -101 -31 -71 -31 7 0 49 8 92 17 68 15 89 15 167
4 49 -7 94 -10 100 -6 5 3 10 1 10 -5 0 -6 4 -9 9 -6 5 3 20 -4 35 -15 14 -11
26 -17 26 -13 0 5 21 -12 47 -36 44 -42 45 -42 22 -10 -35 47 -127 103 -157
95 -14 -3 -21 -2 -18 3 17 27 -156 29 -262 3z"/>
<path d="M320 351 c-14 -4 -20 -10 -14 -14 6 -3 20 0 30 8 21 16 20 16 -16 6z"/>
<path d="M225 325 c-40 -19 -20 -18 30 0 22 8 31 14 20 14 -11 0 -33 -7 -50
-14z"/>
<path d="M235 290 c3 -6 -4 -10 -17 -11 -13 0 -17 -3 -10 -6 6 -2 10 -9 6 -14
-3 -5 3 -9 13 -10 13 -1 11 -3 -6 -8 -22 -6 -23 -8 -8 -23 12 -11 13 -18 5
-20 -14 -5 -21 -125 -8 -133 5 -3 27 17 50 45 23 27 38 50 33 50 -4 1 3 8 17
16 14 8 17 13 8 10 -24 -7 -23 9 2 34 26 26 17 26 -19 -1 -21 -15 -27 -27 -25
-47 l4 -27 -9 25 c-4 14 -5 30 -1 35 4 6 10 23 12 38 4 20 0 32 -16 42 -24 17
-40 20 -31 5z"/>
</g>
</svg>
